<?xml version="1.0" encoding="UTF-8" standalone="no"?>
<svg
   xmlns:dc="http://purl.org/dc/elements/1.1/"
   xmlns:cc="http://creativecommons.org/ns#"
   xmlns:rdf="http://www.w3.org/1999/02/22-rdf-syntax-ns#"
   xmlns:svg="http://www.w3.org/2000/svg"
   xmlns="http://www.w3.org/2000/svg"
   xmlns:sodipodi="http://sodipodi.sourceforge.net/DTD/sodipodi-0.dtd"
   xmlns:inkscape="http://www.inkscape.org/namespaces/inkscape"
   version="1.1"
   viewBox="0 -200 1000 1000"
   id="svg6"
   sodipodi:docname="uni3042_AlbaMinchoKana.svg"
   inkscape:version="0.92.1 r15371"
   inkscape:export-filename="/home/imayouichou/Documents/Alba_Mincho/uni3042_AlbaMinchoKana.svg.png"
   inkscape:export-xdpi="96"
   inkscape:export-ydpi="96">
  <metadata
     id="metadata12">
    <rdf:RDF>
      <cc:Work
         rdf:about="">
        <dc:format>image/svg+xml</dc:format>
        <dc:type
           rdf:resource="http://purl.org/dc/dcmitype/StillImage" />
        <dc:title></dc:title>
      </cc:Work>
    </rdf:RDF>
  </metadata>
  <defs
     id="defs10" />
  <sodipodi:namedview
     pagecolor="#ffffff"
     bordercolor="#666666"
     borderopacity="1"
     objecttolerance="10"
     gridtolerance="10"
     guidetolerance="10"
     inkscape:pageopacity="0"
     inkscape:pageshadow="2"
     inkscape:window-width="1024"
     inkscape:window-height="695"
     id="namedview8"
     showgrid="false"
     inkscape:zoom="0.511"
     inkscape:cx="125.24462"
     inkscape:cy="500"
     inkscape:window-x="0"
     inkscape:window-y="25"
     inkscape:window-maximized="1"
     inkscape:current-layer="layer7" />
  <g
     inkscape:groupmode="layer"
     id="layer7"
     inkscape:label="3_full_(path&gt;difference)"
     sodipodi:insensitive="true"
     style="display:inline">
    <path
       style="display:inline;opacity:1;vector-effect:none;fill:#3769e1;fill-opacity:1;fill-rule:nonzero;stroke:none;stroke-width:0.75590551;stroke-linecap:butt;stroke-linejoin:miter;stroke-miterlimit:4;stroke-dasharray:none;stroke-dashoffset:0;stroke-opacity:1"
       d="m 500,-180 a 480,480 0 0 0 -28.425,1.0075 c 0.16895,0.97398 0.265,1.92233 0.265,2.8325 0,11.52 -16.64,21.76 -29.44,60.16 -4.9278,14.78339 -12.69979,45.758387 -20.3975,92.062502 C 564.7648,-54.446605 651.62941,-116 668.96,-116 694.56,-116 724,-92.96 724,-75.04 724,-50.730176 576.253,12.719616 412.6475,41.817498 406.52055,92.516954 401.34438,154.29916 398.97999,226.83 467.31575,200.39882 540.21356,183.27482 614.2575,179.2975 614.87817,174.52429 615.2,169.95095 615.2,165.6 615.2,140 596,108 576.8,88.8 L 596,76 c 36.77944,26.27103 73.53708,65.48285 85.5275,103.47 135.99155,8.42705 244.19727,67.13032 296.40501,161.8525 A 480,480 0 0 0 980,300 480,480 0 0 0 500,-180 Z m -128.17251,17.4425 A 480,480 0 0 0 153.03,-30.860006 C 186.77302,-15.096218 226.29484,-7.2 263.2,-7.2 c 32.60965,0 63.48581,-2.0717056 92.565,-5.630003 7.60024,-76.756147 14.91643,-129.735037 16.06249,-149.727497 z M 125.075,1.037504 A 480,480 0 0 0 20,300 480,480 0 0 0 57.584998,485.025 C 118.6642,396.14285 219.34074,310.99055 338.7175,253.0725 340.76449,177.92744 345.05804,109.71601 349.92,51.08 318.55021,54.719283 287.21012,56.8 256.8,56.8 203.71693,56.8 159.81294,35.389542 125.075,1.037504 Z M 602.3925,223.37999 c -70.07151,1.95588 -139.76255,19.81664 -204.465,47.79501 -0.20841,13.55587 -0.3275,27.4107 -0.3275,41.625 0,71.71361 7.82587,129.39145 18.1575,175.32 84.67458,-87.93869 158.01589,-189.41033 186.635,-264.74001 z m 79.6,4.31252 c -20.18624,75.18443 -122.98583,213.17053 -246.77,328.88249 15.6392,45.10467 30.2175,70.7587 30.2175,82.625 0,19.2 -23.04,44.8 -48.64,44.8 -13.31894,0 -29.2916,-27.78158 -43.41,-73.065 -43.80247,36.06695 -88.86482,67.96652 -132.77749,92.3625 A 480,480 0 0 0 500,780 480,480 0 0 0 905.01251,556.58749 C 913.87505,529.13597 918.56,499.15438 918.56,466.4 918.56,342.82836 832.776,248.84468 681.9925,227.69251 Z m -344.2425,73.12 C 219.87936,366.19146 126.15955,462.55365 89.950003,548.6325 A 480,480 0 0 0 186.12,662.79 C 238.19974,641.33171 298.38363,598.28756 356.9025,545.3025 345.35859,488.08293 337.44,418.05473 337.44,344.8 c 0,-14.88849 0.11866,-29.52732 0.31,-43.98749 z"
       id="path4527-7-3"
       inkscape:connector-curvature="0" />
  </g>
  <g
     inkscape:groupmode="layer"
     id="layer6"
     inkscape:label="3_background"
     style="display:none"
     sodipodi:insensitive="true">
    <circle
       style="display:inline;opacity:1;vector-effect:none;fill:#3769e1;fill-opacity:1;fill-rule:nonzero;stroke:none;stroke-width:0.75590557;stroke-linecap:butt;stroke-linejoin:miter;stroke-miterlimit:4;stroke-dasharray:none;stroke-dashoffset:0;stroke-opacity:1"
       id="path4527-7"
       cx="500"
       cy="300"
       r="375" />
  </g>
  <g
     inkscape:groupmode="layer"
     id="layer4"
     inkscape:label="2_background"
     style="display:none"
     sodipodi:insensitive="true">
    <circle
       style="opacity:1;vector-effect:none;fill:#ff0000;fill-opacity:1;fill-rule:nonzero;stroke:none;stroke-width:0.75590557;stroke-linecap:butt;stroke-linejoin:miter;stroke-miterlimit:4;stroke-dasharray:none;stroke-dashoffset:0;stroke-opacity:1"
       id="path4527"
       cx="500"
       cy="300"
       r="375" />
  </g>
  <g
     transform="matrix(1,0,0,-1,0,600)"
     id="g4"
     style="fill:#3769e1;fill-opacity:1;stroke:none" />
  <g
     inkscape:groupmode="layer"
     id="layer1"
     inkscape:label="1_background"
     style="display:none"
     sodipodi:insensitive="true">
    <rect
       style="opacity:1;vector-effect:none;fill:#fcffe1;fill-opacity:1;fill-rule:nonzero;stroke:none;stroke-width:0.75590551;stroke-linecap:butt;stroke-linejoin:miter;stroke-miterlimit:4;stroke-dasharray:none;stroke-dashoffset:0;stroke-opacity:1"
       id="rect4508"
       width="1000"
       height="1000"
       x="0"
       y="-200.00009"
       ry="80.897812" />
  </g>
  <g
     inkscape:groupmode="layer"
     id="layer5"
     inkscape:label="3_foreground"
     style="display:none"
     sodipodi:insensitive="true">
    <path
       d="m 590,240 c -212,0 -423,190 -423,310 0,30 13,45 38,45 125,0 385,-290 385,-400 0,-20 -15,-45 -30,-60 l 15,-10 c 35,25 70,65 70,100 0,95 -295,429 -470,429 -35,0 -70,-29 -70,-74 0,-160 250,-375 510,-375 165,0 285,91 285,235 0,186 -175,270 -420,285 l -5,-20 C 675,670 827,595 827,430 827,320 740,240 590,240 Z m -250,-335 -5,-20 c 12,-5 35,-10 50,-10 50,0 93,35 93,53 0,9 -13,17 -23,47 -10,30 -35,145 -35,335 0,165 53,235 53,255 0,15 -18,35 -38,35 -25,0 -62,-125 -62,-265 0,-215 27,-375 27,-400 0,-15 -20,-32 -45,-32 -5,0 -10,1 -15,2 z M 175,25 190,15 c 30,30 80,45 125,45 185,0 299,-85 317,-85 20,0 43,18 43,32 0,25 -200,103 -365,103 -60,0 -105,-35 -135,-85 z"
       id="path2-3-6"
       inkscape:connector-curvature="0"
       style="display:inline;fill:#ffffff;fill-opacity:1;stroke:none" />
  </g>
  <g
     inkscape:groupmode="layer"
     id="layer3"
     inkscape:label="2_foreground"
     style="display:none"
     sodipodi:insensitive="true">
    <path
       d="m 581.60229,234.02649 c -159,0 -317.25,142.5 -317.25,232.5 0,22.5 9.75,33.75 28.5,33.75 93.75,0 288.75,-217.5 288.75,-300 0,-15 -11.25,-33.75 -22.5,-45 l 11.25,-7.5 c 26.25,18.75 52.5,48.75 52.5,75 0,71.25 -221.25,321.75 -352.5,321.75 -26.25,0 -52.5,-21.75 -52.5,-55.5 0,-120 187.5,-281.25 382.5,-281.25 123.75,0 213.75,68.25 213.75,176.25 0,139.5 -131.25,202.5 -315,213.75 l -3.75,-15 c 150,-26.25 264,-82.5 264,-206.25 0,-82.5 -65.25,-142.5 -177.75,-142.5 z m -187.5,-251.249997 -3.75,-15 c 9,-3.75 26.25,-7.5 37.5,-7.5 37.5,0 69.75,26.25 69.75,39.74999977 0,6.75000003 -9.75,12.75000023 -17.25,35.25000023 -7.5,22.5 -26.25,108.749997 -26.25,251.249997 0,123.75 39.75,176.25 39.75,191.25 0,11.25 -13.5,26.25 -28.5,26.25 -18.75,0 -46.5,-93.75 -46.5,-198.75 0,-161.25 20.25,-281.249997 20.25,-299.9999972 0,-11.25 -15,-23.9999998 -33.75,-23.9999998 -3.75,0 -7.5,0.75 -11.25,1.5 z m -123.75,90 11.25,-7.5 c 22.5,22.500001 60,33.750001 93.75,33.750001 138.75,0 224.25,-63.750001 237.75,-63.750001 15,0 32.25,13.5 32.25,24 0,18.75 -150,77.249997 -273.75,77.249997 -45,0 -78.75,-26.25 -101.25,-63.749997 z"
       id="path2-3"
       inkscape:connector-curvature="0"
       style="display:inline;fill:#ffffff;fill-opacity:1;stroke:none;stroke-width:1" />
  </g>
  <g
     inkscape:groupmode="layer"
     id="layer2"
     inkscape:label="1_foreground"
     style="display:none"
     sodipodi:insensitive="true">
    <path
       d="m 590,240 c -212,0 -423,190 -423,310 0,30 13,45 38,45 125,0 385,-290 385,-400 0,-20 -15,-45 -30,-60 l 15,-10 c 35,25 70,65 70,100 0,95 -295,429 -470,429 -35,0 -70,-29 -70,-74 0,-160 250,-375 510,-375 165,0 285,91 285,235 0,186 -175,270 -420,285 l -5,-20 C 675,670 827,595 827,430 827,320 740,240 590,240 Z m -250,-335 -5,-20 c 12,-5 35,-10 50,-10 50,0 93,35 93,53 0,9 -13,17 -23,47 -10,30 -35,145 -35,335 0,165 53,235 53,255 0,15 -18,35 -38,35 -25,0 -62,-125 -62,-265 0,-215 27,-375 27,-400 0,-15 -20,-32 -45,-32 -5,0 -10,1 -15,2 z M 175,25 190,15 c 30,30 80,45 125,45 185,0 299,-85 317,-85 20,0 43,18 43,32 0,25 -200,103 -365,103 -60,0 -105,-35 -135,-85 z"
       id="path2"
       inkscape:connector-curvature="0"
       style="fill:#3769e1;fill-opacity:1;stroke:none" />
  </g>
</svg>
